<?xml version="1.0" encoding="iso-8859-1"?>
<!-- Generator: Adobe Illustrator 19.0.0, SVG Export Plug-In . SVG Version: 6.00 Build 0)  -->
<svg version="1.1" id="Capa_1" xmlns="http://www.w3.org/2000/svg" xmlns:xlink="http://www.w3.org/1999/xlink" x="0px" y="0px"
	 viewBox="0 0 512 512" style="enable-background:new 0 0 512 512;" xml:space="preserve">
<rect x="181" y="406" style="fill:#444444;" width="150" height="60"/>
<rect x="256" y="406" style="fill:#292929;" width="75" height="60"/>
<path style="fill:#5A5A5A;" d="M0,31v390h512V31H0z"/>
<rect x="256" y="31" style="fill:#444444;" width="256" height="390"/>
<path style="fill:#FFFDE5;" d="M30,61v330h452V61H30z"/>
<rect x="256" y="61" style="fill:#FEF8C9;" width="226" height="330"/>
<rect x="91" y="451" style="fill:#5A5A5A;" width="330" height="30"/>
<rect x="256" y="451" style="fill:#444444;" width="165" height="30"/>
<g>
	<rect x="151" y="316" style="fill:#5A5A5A;" width="30" height="45"/>
	<rect x="211" y="316" style="fill:#5A5A5A;" width="30" height="45"/>
</g>
<g>
	<rect x="271" y="316" style="fill:#444444;" width="30" height="45"/>
	<rect x="331" y="316" style="fill:#444444;" width="30" height="45"/>
</g>
<g>
	<rect x="151" y="91" style="fill:#5A5A5A;" width="30" height="45"/>
	<rect x="211" y="91" style="fill:#5A5A5A;" width="30" height="45"/>
</g>
<g>
	<rect x="271" y="91" style="fill:#444444;" width="30" height="45"/>
	<rect x="331" y="91" style="fill:#444444;" width="30" height="45"/>
	<polygon style="fill:#444444;" points="391,361 421,361 421,331 406,301 391,331 	"/>
</g>
<g>
	<polygon style="fill:#5A5A5A;" points="121,91 91,91 91,121 106,151 121,121 	"/>
	<polygon style="fill:#5A5A5A;" points="91,331 91,361 121,361 121,331 106,301 	"/>
</g>
<polygon style="fill:#444444;" points="391,91 391,121 406,151 421,121 421,91 "/>
<path style="fill:#FF4B00;" d="M91,121v210h330V121H91z"/>
<rect x="256" y="121" style="fill:#DD3400;" width="165" height="210"/>
<path style="fill:#FFFDE5;" d="M211,171.7v108.6L319.6,226L211,171.7z"/>
<polygon style="fill:#FEF8C9;" points="319.6,226 256,257.8 256,194.2 "/>
<g>
</g>
<g>
</g>
<g>
</g>
<g>
</g>
<g>
</g>
<g>
</g>
<g>
</g>
<g>
</g>
<g>
</g>
<g>
</g>
<g>
</g>
<g>
</g>
<g>
</g>
<g>
</g>
<g>
</g>
</svg>
